<svg width="35" height="32" viewBox="0 0 35 32" fill="none" xmlns="http://www.w3.org/2000/svg">
<path d="M19.3761 6.43782C19.1749 6.10383 18.8907 5.82753 18.5512 5.63573C18.2117 5.44393 17.8284 5.34314 17.4385 5.34314C17.0485 5.34314 16.6652 5.44393 16.3257 5.63573C15.9862 5.82753 15.7021 6.10383 15.5008 6.43782L12.3134 11.8971C14.7485 13.1128 16.8232 14.9443 18.3315 17.2098C19.8398 19.4753 20.7293 22.0959 20.9117 24.8114H18.6737C18.4917 22.4837 17.705 20.2438 16.3915 18.3135C15.078 16.3832 13.2832 14.8293 11.1848 13.8057L8.23472 18.9065C9.41441 19.4356 10.4422 20.2527 11.2234 21.2829C12.0047 22.313 12.5145 23.5231 12.7058 24.8017H7.56624C7.50528 24.7974 7.44636 24.778 7.39478 24.7452C7.34321 24.7125 7.3006 24.6674 7.2708 24.614C7.241 24.5607 7.22495 24.5008 7.2241 24.4397C7.22324 24.3786 7.23761 24.3182 7.2659 24.264L8.69006 21.842C8.20756 21.4394 7.65612 21.1276 7.06245 20.9216L5.65282 23.3437C5.50607 23.5954 5.41081 23.8737 5.37255 24.1626C5.3343 24.4514 5.35382 24.745 5.42999 25.0262C5.50616 25.3075 5.63745 25.5708 5.81624 25.8008C5.99503 26.0309 6.21775 26.2231 6.47147 26.3664C6.80576 26.5547 7.18254 26.6547 7.56624 26.657H14.6047C14.7354 25.044 14.4473 23.4245 13.7684 21.9555C13.0895 20.4864 12.0427 19.2176 10.7294 18.2719L11.8484 16.3343C13.5058 17.4726 14.8377 19.0234 15.7126 20.8337C16.5876 22.644 16.9754 24.6511 16.8378 26.657H22.8009C22.9397 23.6183 22.2787 20.5964 20.8837 17.8932C19.4888 15.19 17.4088 12.9003 14.8517 11.2528L17.1139 7.37757C17.1643 7.29311 17.2461 7.23199 17.3413 7.20749C17.4366 7.183 17.5377 7.19712 17.6225 7.24678C17.8793 7.38726 27.4512 24.0897 27.6304 24.2834C27.662 24.34 27.6781 24.404 27.677 24.4688C27.6759 24.5336 27.6578 24.597 27.6243 24.6526C27.5909 24.7081 27.5434 24.7538 27.4866 24.7851C27.4299 24.8164 27.3658 24.8322 27.301 24.8308H24.9952C25.0243 25.4476 25.0243 26.0628 24.9952 26.6764H27.3107C27.6047 26.6783 27.8962 26.6219 28.1683 26.5104C28.4404 26.3989 28.6876 26.2346 28.8958 26.0269C29.1039 25.8192 29.2688 25.5723 29.3808 25.3005C29.4929 25.0287 29.55 24.7373 29.5487 24.4433C29.549 24.0549 29.4453 23.6736 29.2483 23.3388L19.3761 6.43782Z" fill="#362D59"/>
</svg>
